<?xml version="1.0" encoding="iso-8859-1"?>
<!-- Generator: Adobe Illustrator 19.0.0, SVG Export Plug-In . SVG Version: 6.00 Build 0)  -->
<svg version="1.1" id="Layer_1" xmlns="http://www.w3.org/2000/svg" xmlns:xlink="http://www.w3.org/1999/xlink" x="0px" y="0px"
	 viewBox="0 0 512.001 512.001" style="enable-background:new 0 0 512.001 512.001;" xml:space="preserve">
<path style="fill:#816142;" d="M505.159,155.941c0,0-59.824-41.155-64.822-41.155H367.14H86.897
	c-8.484,0-15.362,6.878-15.362,15.362v251.735c0,8.484,6.878,15.362,15.362,15.362H367.14h73.197
	c8.484,0,15.362-6.878,15.362-15.362v-221.99l32.416,21.611c2.619,1.746,5.579,2.582,8.508,2.582c4.963,0,9.836-2.402,12.796-6.842
	C514.126,170.184,512.218,160.647,505.159,155.941z"/>
<path style="fill:#AC825A;" d="M86.897,114.786c-8.484,0-15.362,6.878-15.362,15.362v251.735c0,8.484,6.878,15.362,15.362,15.362
	h132.44l-0.012-282.458C219.325,114.786,86.897,114.786,86.897,114.786z"/>
<path style="fill:#FF9900;" d="M35.05,126.779L2.538,150.125c-7.086,13.223,1.797,24.9,12.748,24.9h275.051
	c3.057,0,6.042-0.918,8.571-2.634l61.839-41.968c5.122-3.477,7.596-9.664,6.393-15.637l-294.724-0.03
	C59.008,114.755,45.94,118.96,35.05,126.779z"/>
<path style="fill:#FAD52A;" d="M35.05,126.779L2.538,150.125c-7.086,13.223,1.797,24.9,12.748,24.9h140.353l87.122-60.257
	l-170.346-0.011C59.008,114.755,45.94,118.96,35.05,126.779z"/>
<g>
</g>
<g>
</g>
<g>
</g>
<g>
</g>
<g>
</g>
<g>
</g>
<g>
</g>
<g>
</g>
<g>
</g>
<g>
</g>
<g>
</g>
<g>
</g>
<g>
</g>
<g>
</g>
<g>
</g>
</svg>
